<?xml version="1.0" encoding="UTF-8"?>
<!-- Created with Inkscape (http://www.inkscape.org/) -->
<svg width="177.16" height="141.74" version="1.1" viewBox="0 0 177.16 141.74" xml:space="preserve" xmlns="http://www.w3.org/2000/svg" xmlns:cc="http://creativecommons.org/ns#" xmlns:dc="http://purl.org/dc/elements/1.1/" xmlns:rdf="http://www.w3.org/1999/02/22-rdf-syntax-ns#"><metadata><rdf:RDF><cc:Work rdf:about=""><dc:format>image/svg+xml</dc:format><dc:type rdf:resource="http://purl.org/dc/dcmitype/StillImage"/></cc:Work></rdf:RDF></metadata><g transform="matrix(1.25 0 0 -1.25 0 141.74)"><path d="m101.11 55.978h-23.341v4.249h23.341v-4.249z" fill="#59cbe8"/><g transform="translate(29.427 74.568)"><path d="m0 0h-11.513v13.966h-8.918v-36.288h8.918v14.373h11.513v-14.373h8.918v36.288h-8.918v-13.966z" fill="#75766a"/></g><g transform="translate(44.685 52.246)"><path d="m0 0h26.702v7.951h-17.782v6.37h15.487v7.951h-15.487v6.066h17.782v7.951h-26.702v-36.289z" fill="#75766a"/></g><g transform="translate(124.06 60.246)"><path d="m0 0h-8.046v6.372h8.046c2.446 0 3.262-1.631 3.262-3.16s-0.816-3.212-3.262-3.212m-8.046 20.285h7.587c2.447 0 3.212-1.53 3.212-2.955 0-1.428-0.765-2.957-3.212-2.957h-7.587v5.912zm15.742-9.684c1.123 0.766 3.976 3.058 3.976 7.188 0 6.268-4.026 10.499-11.57 10.499h-17.066v-36.289h17.831c6.472 0 11.315 3.772 11.315 10.703 0 5.096-3.007 6.982-4.486 7.899" fill="#75766a"/></g><g transform="translate(96.628 83.336)"><path d="m0 0c2.905 3.056 4.484 5.096 4.484 8.918 0 6.829-4.893 10.958-11.62 10.958-6.32 0-11.721-3.924-11.721-11.06v-0.325c0-2.316 1.877-4.193 4.192-4.193s4.192 1.877 4.192 4.193c0 0.043-0.018 0.385-0.018 0.529 0.09 2.63 1.865 3.313 3.355 3.313 2.142 0 3.262-1.377 3.262-3.365 0-1.527-0.508-2.444-1.834-3.872l-13.149-14.271v-7.543h3.144l7.089 7.543 8.618 9.169 6e-3 6e-3z" fill="#75766a"/></g><g transform="translate(97.047 66.619)"><path d="m0 0h0.294c2.083 0 3.771 1.688 3.771 3.771s-1.688 3.771-3.771 3.771h-0.294-9.043l-7.089-7.542h16.132z" fill="#9a9b92"/></g><g fill="#59cbe8"><g transform="translate(8.7314 17.839)"><path d="m0 0v26.465h18.307v-4.61h-12.881v-6.207h10.968v-4.609h-10.968v-6.431h12.881v-4.608h-18.307z" fill="#59cbe8"/></g><g transform="translate(39.995 17.616)"><path d="m0 0c-4.215 0-7.416 0.855-10.148 3.494l3.513 3.346c1.756-1.673 4.137-2.231 6.713-2.231 3.201 0 4.918 1.153 4.918 3.272 0 0.929-0.272 1.709-0.858 2.229-0.547 0.484-1.171 0.744-2.459 0.93l-3.357 0.446c-2.381 0.334-4.137 1.04-5.386 2.193-1.328 1.263-1.991 2.973-1.991 5.204 0 4.721 3.669 8.029 9.68 8.029 3.825 0 6.597-0.892 8.978-3.086l-3.436-3.233c-1.756 1.598-3.864 1.821-5.698 1.821-2.889 0-4.294-1.524-4.294-3.346 0-0.669 0.234-1.375 0.82-1.895 0.546-0.484 1.444-0.892 2.576-1.041l3.279-0.445c2.537-0.335 4.137-1.004 5.308-2.045 1.484-1.338 2.147-3.271 2.147-5.613 0-5.13-4.489-8.029-10.305-8.029" fill="#59cbe8"/></g><path d="m55.412 44.304h5.426v-26.465h-5.426v26.465z"/></g></g></svg>
